<mxfile host="app.diagrams.net" modified="2023-09-15T16:59:55.922Z" agent="Mozilla/5.0 (Windows NT 10.0; Win64; x64) AppleWebKit/537.36 (KHTML, like Gecko) Chrome/117.0.0.0 Safari/537.36" version="21.7.2" etag="CJr946tWlg_9Dy2i0Shb" type="github">
  <diagram name="Страница — 1" id="2kAOOVgiXVAEId-HnfGU">
    <mxGraphModel>
      <root>
        <mxCell id="0" />
        <mxCell id="1" parent="0" />
      </root>
    </mxGraphModel>
  </diagram>
</mxfile>
